<svg xmlns="http://www.w3.org/2000/svg" viewBox="0 0 600 450">
  <defs>
    <linearGradient id="bg" x1="0" y1="0" x2="1" y2="1">
      <stop offset="0%" stop-color="#1e6f5c"/>
      <stop offset="100%" stop-color="#17100e"/>
    </linearGradient>
    <radialGradient id="glow" cx="50%" cy="40%" r="60%">
      <stop offset="0%" stop-color="#3ddc84" stop-opacity="0.3"/>
      <stop offset="100%" stop-color="#3ddc84" stop-opacity="0"/>
    </radialGradient>
    <linearGradient id="drinkg" x1="0" y1="0" x2="0" y2="1">
      <stop offset="0%" stop-color="#a8e0a0"/>
      <stop offset="100%" stop-color="#4f8a3d"/>
    </linearGradient>
  </defs>
  <rect width="600" height="450" fill="url(#bg)"/>
  <rect width="600" height="450" fill="url(#glow)"/>
  <ellipse cx="300" cy="378" rx="95" ry="13" fill="#000" opacity="0.25"/>
  <path d="M 240 150 L 360 150 L 340 360 Q 300 374 260 360 Z" fill="#eef7ea" opacity="0.25"/>
  <path d="M 248 210 L 352 210 L 336 355 Q 300 368 264 355 Z" fill="url(#drinkg)"/>
  <ellipse cx="300" cy="210" rx="52" ry="13" fill="#c9f0c0"/>
  <g fill="#2f6b28">
    <ellipse cx="270" cy="245" rx="9" ry="15" transform="rotate(20 270 245)"/>
    <ellipse cx="330" cy="270" rx="9" ry="15" transform="rotate(-25 330 270)"/>
    <ellipse cx="290" cy="300" rx="9" ry="15" transform="rotate(10 290 300)"/>
  </g>
  <circle cx="315" cy="230" r="10" fill="#e8442c"/>
  <rect x="292" y="60" width="13" height="150" rx="6.5" fill="#e8a33d" transform="rotate(6 298 135)"/>
</svg>
